<svg xmlns="http://www.w3.org/2000/svg" xmlns:xlink="http://www.w3.org/1999/xlink" width="2000" zoomAndPan="magnify" viewBox="0 0 1500 1499.999933" height="2000" preserveAspectRatio="xMidYMid meet" version="1.0"><defs><g/><clipPath id="a7200d6f98"><rect x="0" width="679" y="0" height="127"/></clipPath><clipPath id="77996b04f0"><rect x="0" width="525" y="0" height="480"/></clipPath><clipPath id="38baa44bf1"><path d="M 91 735 L 480 735 L 480 1054.734375 L 91 1054.734375 Z M 91 735 " clip-rule="nonzero"/></clipPath><clipPath id="94eb660530"><path d="M 125 393.234375 L 445 393.234375 L 445 713 L 125 713 Z M 125 393.234375 " clip-rule="nonzero"/></clipPath><clipPath id="a870bc4459"><path d="M 0 843 L 71 843 L 71 1054.734375 L 0 1054.734375 Z M 0 843 " clip-rule="nonzero"/></clipPath><clipPath id="f7f8ade583"><path d="M 500 843 L 570.75 843 L 570.75 1054.734375 L 500 1054.734375 Z M 500 843 " clip-rule="nonzero"/></clipPath><clipPath id="0aa553e310"><rect x="0" width="218" y="0" height="271"/></clipPath><clipPath id="6bf2fe3d01"><rect x="0" width="353" y="0" height="66"/></clipPath></defs><g fill="#ffffff" fill-opacity="1"><g transform="translate(677.753521, 729.300157)"><g><path d="M 223.449219 -97.273438 C 223.449219 -118.394531 205.847656 -133.03125 184.722656 -133.03125 L 167.492188 -133.03125 C 145.445312 -133.03125 128.769531 -117.28125 128.769531 -97.273438 L 128.585938 -36.128906 C 128.585938 -28.164062 123.953125 -24.273438 114.875 -24.273438 C 105.425781 -24.273438 100.605469 -28.164062 100.605469 -36.128906 L 100.976562 -97.273438 C 101.164062 -118.394531 82.820312 -133.03125 62.070312 -133.03125 L 44.652344 -133.03125 C 23.714844 -133.03125 5.929688 -118.578125 5.929688 -97.273438 L 5.929688 -0.183594 L 31.128906 -0.183594 L 31.128906 -97.273438 C 31.128906 -105.238281 35.574219 -109.316406 44.652344 -109.316406 L 62.070312 -109.316406 C 71.148438 -109.316406 75.78125 -105.238281 75.78125 -97.273438 L 75.78125 -36.128906 C 75.78125 -14.453125 93.195312 -0.183594 114.875 -0.183594 C 135.808594 -0.183594 153.597656 -15.191406 153.597656 -36.128906 L 153.78125 -97.273438 C 153.78125 -105.238281 158.414062 -109.316406 167.492188 -109.316406 L 184.722656 -109.316406 C 193.804688 -109.316406 198.433594 -105.238281 198.433594 -97.273438 L 198.433594 -0.183594 L 223.449219 -0.183594 Z M 223.449219 -97.273438 "/></g></g></g><g fill="#ffffff" fill-opacity="1"><g transform="translate(919.720555, 729.300157)"><g><path d="M 162.675781 -97.085938 C 162.675781 -118.394531 144.519531 -132.847656 123.953125 -132.847656 L 45.207031 -132.847656 C 24.640625 -132.847656 6.300781 -118.578125 6.300781 -97.085938 L 6.300781 -36.128906 C 6.300781 -15.5625 25.570312 -0.183594 45.207031 -0.183594 L 160.453125 -0.183594 L 160.453125 -23.902344 L 45.207031 -23.902344 C 38.539062 -23.902344 31.496094 -29.460938 31.496094 -36.128906 L 31.496094 -97.085938 C 31.496094 -105.054688 36.128906 -109.128906 45.207031 -109.128906 L 123.953125 -109.128906 C 133.03125 -109.128906 137.664062 -105.054688 137.664062 -97.085938 L 137.664062 -90.601562 C 137.664062 -84.117188 130.4375 -78.742188 123.953125 -78.742188 L 45.207031 -78.742188 L 45.207031 -54.84375 L 123.953125 -54.84375 C 143.777344 -54.84375 162.675781 -70.960938 162.675781 -90.601562 Z M 162.675781 -97.085938 "/></g></g></g><g fill="#ffffff" fill-opacity="1"><g transform="translate(1099.065205, 729.300157)"><g><path d="M 170.457031 -43.355469 C 170.457031 -51.878906 167.121094 -59.660156 160.636719 -66.699219 C 167.121094 -73.554688 170.457031 -81.152344 170.457031 -89.859375 L 170.457031 -97.085938 C 170.457031 -118.207031 152.855469 -132.847656 131.734375 -132.847656 L 8.152344 -132.847656 L 8.152344 -0.183594 L 33.164062 -0.183594 L 33.164062 -109.128906 L 131.734375 -109.128906 C 140.8125 -109.128906 145.445312 -105.054688 145.445312 -97.085938 L 145.445312 -89.859375 C 145.445312 -82.449219 140.8125 -78.742188 131.734375 -78.742188 L 40.945312 -78.742188 L 40.945312 -54.285156 L 131.734375 -54.285156 C 138.960938 -54.285156 145.445312 -50.210938 145.445312 -43.355469 L 145.445312 -0.183594 L 170.457031 -0.183594 Z M 170.457031 -43.355469 "/></g></g></g><g fill="#ffffff" fill-opacity="1"><g transform="translate(1287.858781, 729.300157)"><g><path d="M 170.457031 -133.03125 L 145.445312 -133.03125 L 145.445312 -36.128906 C 145.445312 -28.164062 140.8125 -24.273438 131.734375 -24.273438 L 114.503906 -24.273438 C 105.238281 -24.273438 100.605469 -28.164062 100.605469 -36.128906 L 100.976562 -97.273438 C 101.164062 -118.394531 82.820312 -133.03125 62.070312 -133.03125 L 44.652344 -133.03125 C 23.714844 -133.03125 5.929688 -118.578125 5.929688 -97.273438 L 5.929688 -0.183594 L 31.128906 -0.183594 L 31.128906 -97.273438 C 31.128906 -105.238281 35.574219 -109.316406 44.652344 -109.316406 L 62.070312 -109.316406 C 71.148438 -109.316406 75.78125 -105.238281 75.78125 -97.273438 L 75.78125 -36.128906 C 75.78125 -15.933594 92.453125 -0.183594 114.503906 -0.183594 L 131.734375 -0.183594 C 152.671875 -0.183594 170.457031 -15.191406 170.457031 -36.128906 Z M 170.457031 -133.03125 "/></g></g></g><g fill="#ffffff" fill-opacity="1"><g transform="translate(624.49081, 899.81755)"><g><path d="M 164.898438 -24.273438 L 47.988281 -24.273438 C 38.910156 -24.273438 34.277344 -28.164062 34.277344 -36.128906 L 34.277344 -97.273438 C 34.277344 -103.757812 41.316406 -109.316406 47.988281 -109.316406 L 164.898438 -109.316406 L 164.898438 -133.03125 L 47.988281 -133.03125 C 28.347656 -133.03125 9.078125 -116.542969 9.078125 -97.273438 L 9.078125 -36.128906 C 9.078125 -15.007812 26.867188 -0.183594 47.988281 -0.183594 L 164.898438 -0.183594 Z M 164.898438 -24.273438 "/></g></g></g><g fill="#ffffff" fill-opacity="1"><g transform="translate(802.538537, 899.81755)"><g><path d="M 170.457031 -43.355469 C 170.457031 -51.878906 167.121094 -59.660156 160.636719 -66.699219 C 167.121094 -73.554688 170.457031 -81.152344 170.457031 -89.859375 L 170.457031 -97.085938 C 170.457031 -118.207031 152.855469 -132.847656 131.734375 -132.847656 L 8.152344 -132.847656 L 8.152344 -0.183594 L 33.164062 -0.183594 L 33.164062 -109.128906 L 131.734375 -109.128906 C 140.8125 -109.128906 145.445312 -105.054688 145.445312 -97.085938 L 145.445312 -89.859375 C 145.445312 -82.449219 140.8125 -78.742188 131.734375 -78.742188 L 40.945312 -78.742188 L 40.945312 -54.285156 L 131.734375 -54.285156 C 138.960938 -54.285156 145.445312 -50.210938 145.445312 -43.355469 L 145.445312 -0.183594 L 170.457031 -0.183594 Z M 170.457031 -43.355469 "/></g></g></g><g fill="#ffffff" fill-opacity="1"><g transform="translate(991.332129, 899.81755)"><g><path d="M 162.675781 -97.085938 C 162.675781 -118.394531 144.519531 -132.847656 123.953125 -132.847656 L 45.207031 -132.847656 C 24.640625 -132.847656 6.300781 -118.578125 6.300781 -97.085938 L 6.300781 -36.128906 C 6.300781 -15.5625 25.570312 -0.183594 45.207031 -0.183594 L 160.453125 -0.183594 L 160.453125 -23.902344 L 45.207031 -23.902344 C 38.539062 -23.902344 31.496094 -29.460938 31.496094 -36.128906 L 31.496094 -97.085938 C 31.496094 -105.054688 36.128906 -109.128906 45.207031 -109.128906 L 123.953125 -109.128906 C 133.03125 -109.128906 137.664062 -105.054688 137.664062 -97.085938 L 137.664062 -90.601562 C 137.664062 -84.117188 130.4375 -78.742188 123.953125 -78.742188 L 45.207031 -78.742188 L 45.207031 -54.84375 L 123.953125 -54.84375 C 143.777344 -54.84375 162.675781 -70.960938 162.675781 -90.601562 Z M 162.675781 -97.085938 "/></g></g></g><g fill="#ffffff" fill-opacity="1"><g transform="translate(1170.676801, 899.81755)"><g><path d="M 166.195312 -133.03125 L 47.988281 -133.03125 C 28.347656 -133.03125 9.078125 -117.097656 9.078125 -97.273438 L 9.078125 -90.601562 C 9.078125 -69.292969 26.496094 -55.027344 47.988281 -55.027344 L 126.917969 -54.84375 C 135.996094 -54.84375 140.628906 -50.953125 140.628906 -42.984375 L 140.628906 -36.128906 C 140.628906 -29.460938 133.585938 -23.902344 126.917969 -23.902344 L 8.707031 -23.902344 L 8.707031 -0.183594 L 126.917969 -0.183594 C 146.371094 -0.183594 165.640625 -15.75 165.640625 -36.128906 L 165.640625 -42.984375 C 165.640625 -63.921875 148.222656 -78.558594 126.917969 -78.558594 L 47.988281 -78.742188 C 38.910156 -78.742188 34.277344 -82.636719 34.277344 -90.601562 L 34.277344 -97.273438 C 34.277344 -103.757812 41.316406 -109.316406 47.988281 -109.316406 L 166.195312 -109.316406 Z M 166.195312 -133.03125 "/></g></g></g><g fill="#ffffff" fill-opacity="1"><g transform="translate(1350.02145, 899.81755)"><g><path d="M 163.601562 -133.03125 L 9.078125 -133.03125 L 9.078125 -109.316406 L 73.554688 -109.316406 L 73.554688 -0.183594 L 98.382812 -0.183594 L 98.382812 -109.316406 L 163.601562 -109.316406 Z M 163.601562 -133.03125 "/></g></g></g><g transform="matrix(1, 0, 0, 1, 698, 901)"><g clip-path="url(#a7200d6f98)"><g fill="#004aad" fill-opacity="1"><g transform="translate(0.96845, 98.245712)"><g><path d="M 19.96875 -22.015625 C 23.976562 -17.867188 28.238281 -14.640625 32.75 -12.328125 C 37.269531 -10.015625 42.625 -8.859375 48.8125 -8.859375 C 52.34375 -8.859375 55.738281 -9.28125 59 -10.125 C 62.257812 -10.976562 64.941406 -12.269531 67.046875 -14 C 69.148438 -15.738281 70.203125 -17.929688 70.203125 -20.578125 C 70.203125 -22.890625 69.265625 -24.640625 67.390625 -25.828125 C 65.523438 -27.015625 62.84375 -27.929688 59.34375 -28.578125 C 55.851562 -29.222656 51.59375 -29.851562 46.5625 -30.46875 C 40.445312 -31.28125 35.144531 -32.5 30.65625 -34.125 C 26.175781 -35.757812 22.710938 -37.96875 20.265625 -40.75 C 17.828125 -43.539062 16.609375 -47.039062 16.609375 -51.25 C 16.609375 -55.726562 18.015625 -59.53125 20.828125 -62.65625 C 23.648438 -65.78125 27.457031 -68.175781 32.25 -69.84375 C 37.039062 -71.507812 42.390625 -72.34375 48.296875 -72.34375 C 55.566406 -72.34375 61.832031 -71.253906 67.09375 -69.078125 C 72.351562 -66.910156 76.515625 -63.820312 79.578125 -59.8125 L 72.234375 -51.765625 C 69.585938 -54.953125 66.242188 -57.53125 62.203125 -59.5 C 58.160156 -61.46875 53.421875 -62.453125 47.984375 -62.453125 C 44.316406 -62.453125 41.019531 -62.0625 38.09375 -61.28125 C 35.175781 -60.5 32.867188 -59.359375 31.171875 -57.859375 C 29.472656 -56.367188 28.625 -54.570312 28.625 -52.46875 C 28.625 -49.957031 29.523438 -47.972656 31.328125 -46.515625 C 33.128906 -45.054688 35.675781 -43.914062 38.96875 -43.09375 C 42.269531 -42.28125 46.09375 -41.601562 50.4375 -41.0625 C 54.507812 -40.582031 58.445312 -39.984375 62.25 -39.265625 C 66.0625 -38.554688 69.476562 -37.539062 72.5 -36.21875 C 75.519531 -34.894531 77.894531 -33.09375 79.625 -30.8125 C 81.351562 -28.539062 82.21875 -25.609375 82.21875 -22.015625 C 82.21875 -17.390625 80.84375 -13.34375 78.09375 -9.875 C 75.34375 -6.414062 71.453125 -3.734375 66.421875 -1.828125 C 61.398438 0.0664062 55.492188 1.015625 48.703125 1.015625 C 41.296875 1.015625 34.640625 -0.0664062 28.734375 -2.234375 C 22.828125 -4.410156 17.597656 -7.945312 13.046875 -12.84375 Z M 19.96875 -22.015625 "/></g></g></g><g fill="#004aad" fill-opacity="1"><g transform="translate(96.233124, 98.245712)"><g><path d="M 84.0625 -26.796875 C 84.0625 -21.359375 82.566406 -16.550781 79.578125 -12.375 C 76.585938 -8.195312 72.441406 -4.921875 67.140625 -2.546875 C 61.847656 -0.171875 55.703125 1.015625 48.703125 1.015625 C 41.703125 1.015625 35.535156 -0.171875 30.203125 -2.546875 C 24.878906 -4.921875 20.722656 -8.195312 17.734375 -12.375 C 14.742188 -16.550781 13.25 -21.359375 13.25 -26.796875 C 13.25 -32.234375 14.742188 -37.039062 17.734375 -41.21875 C 20.722656 -45.394531 24.878906 -48.671875 30.203125 -51.046875 C 35.535156 -53.421875 41.703125 -54.609375 48.703125 -54.609375 C 55.703125 -54.609375 61.847656 -53.421875 67.140625 -51.046875 C 72.441406 -48.671875 76.585938 -45.394531 79.578125 -41.21875 C 82.566406 -37.039062 84.0625 -32.234375 84.0625 -26.796875 Z M 73.359375 -26.796875 C 73.492188 -30.398438 72.457031 -33.578125 70.25 -36.328125 C 68.039062 -39.078125 65.066406 -41.210938 61.328125 -42.734375 C 57.597656 -44.265625 53.390625 -45.03125 48.703125 -45.03125 C 44.085938 -45.03125 39.875 -44.265625 36.0625 -42.734375 C 32.257812 -41.210938 29.269531 -39.078125 27.09375 -36.328125 C 24.925781 -33.578125 23.875 -30.398438 23.9375 -26.796875 C 23.875 -23.265625 24.925781 -20.125 27.09375 -17.375 C 29.269531 -14.625 32.257812 -12.46875 36.0625 -10.90625 C 39.875 -9.34375 44.085938 -8.5625 48.703125 -8.5625 C 53.390625 -8.5625 57.597656 -9.34375 61.328125 -10.90625 C 65.066406 -12.46875 68.039062 -14.625 70.25 -17.375 C 72.457031 -20.125 73.492188 -23.265625 73.359375 -26.796875 Z M 73.359375 -26.796875 "/></g></g></g><g fill="#004aad" fill-opacity="1"><g transform="translate(193.535552, 98.245712)"><g><path d="M 21.390625 0 L 21.390625 -75.40625 L 31.890625 -75.40625 L 31.890625 0 Z M 21.390625 0 "/></g></g></g><g fill="#004aad" fill-opacity="1"><g transform="translate(246.313181, 98.245712)"><g><path d="M 69.078125 -28.421875 L 69.078125 -53.5 L 79.578125 -53.5 L 79.578125 0 L 69.078125 0 L 69.078125 -9.375 C 67.046875 -6.726562 63.90625 -4.332031 59.65625 -2.1875 C 55.40625 -0.0507812 50.257812 1.015625 44.21875 1.015625 C 39.46875 1.015625 35.304688 -0.0859375 31.734375 -2.296875 C 28.171875 -4.503906 25.382812 -7.660156 23.375 -11.765625 C 21.375 -15.878906 20.375 -20.820312 20.375 -26.59375 L 20.375 -53.5 L 30.875 -53.5 L 30.875 -30.46875 C 30.875 -23.46875 32.265625 -18.21875 35.046875 -14.71875 C 37.835938 -11.21875 42.320312 -9.46875 48.5 -9.46875 C 52.238281 -9.46875 55.671875 -10.234375 58.796875 -11.765625 C 61.921875 -13.296875 64.414062 -15.46875 66.28125 -18.28125 C 68.144531 -21.101562 69.078125 -24.484375 69.078125 -28.421875 Z M 69.078125 -28.421875 "/></g></g></g><g fill="#004aad" fill-opacity="1"><g transform="translate(346.264666, 98.245712)"><g><path d="M 40.453125 0 L 29.953125 0 L 29.953125 -43.296875 L 12.734375 -43.296875 L 12.734375 -53.5 L 29.953125 -53.5 L 29.953125 -70.203125 L 40.453125 -70.203125 L 40.453125 -53.5 L 61.03125 -53.5 L 61.03125 -43.296875 L 40.453125 -43.296875 Z M 40.453125 0 "/></g></g></g><g fill="#004aad" fill-opacity="1"><g transform="translate(422.578281, 98.245712)"><g><path d="M 27.40625 -65.109375 C 25.03125 -65.109375 23.265625 -65.71875 22.109375 -66.9375 C 20.953125 -68.15625 20.375 -69.75 20.375 -71.71875 C 20.375 -73.425781 20.953125 -74.957031 22.109375 -76.3125 C 23.265625 -77.664062 25.03125 -78.34375 27.40625 -78.34375 C 29.78125 -78.34375 31.546875 -77.734375 32.703125 -76.515625 C 33.859375 -75.296875 34.4375 -73.695312 34.4375 -71.71875 C 34.4375 -70.019531 33.859375 -68.492188 32.703125 -67.140625 C 31.546875 -65.785156 29.78125 -65.109375 27.40625 -65.109375 Z M 32.609375 0 L 22.109375 0 L 22.109375 -53.5 L 32.609375 -53.5 Z M 32.609375 0 "/></g></g></g><g fill="#004aad" fill-opacity="1"><g transform="translate(477.393661, 98.245712)"><g><path d="M 84.0625 -26.796875 C 84.0625 -21.359375 82.566406 -16.550781 79.578125 -12.375 C 76.585938 -8.195312 72.441406 -4.921875 67.140625 -2.546875 C 61.847656 -0.171875 55.703125 1.015625 48.703125 1.015625 C 41.703125 1.015625 35.535156 -0.171875 30.203125 -2.546875 C 24.878906 -4.921875 20.722656 -8.195312 17.734375 -12.375 C 14.742188 -16.550781 13.25 -21.359375 13.25 -26.796875 C 13.25 -32.234375 14.742188 -37.039062 17.734375 -41.21875 C 20.722656 -45.394531 24.878906 -48.671875 30.203125 -51.046875 C 35.535156 -53.421875 41.703125 -54.609375 48.703125 -54.609375 C 55.703125 -54.609375 61.847656 -53.421875 67.140625 -51.046875 C 72.441406 -48.671875 76.585938 -45.394531 79.578125 -41.21875 C 82.566406 -37.039062 84.0625 -32.234375 84.0625 -26.796875 Z M 73.359375 -26.796875 C 73.492188 -30.398438 72.457031 -33.578125 70.25 -36.328125 C 68.039062 -39.078125 65.066406 -41.210938 61.328125 -42.734375 C 57.597656 -44.265625 53.390625 -45.03125 48.703125 -45.03125 C 44.085938 -45.03125 39.875 -44.265625 36.0625 -42.734375 C 32.257812 -41.210938 29.269531 -39.078125 27.09375 -36.328125 C 24.925781 -33.578125 23.875 -30.398438 23.9375 -26.796875 C 23.875 -23.265625 24.925781 -20.125 27.09375 -17.375 C 29.269531 -14.625 32.257812 -12.46875 36.0625 -10.90625 C 39.875 -9.34375 44.085938 -8.5625 48.703125 -8.5625 C 53.390625 -8.5625 57.597656 -9.34375 61.328125 -10.90625 C 65.066406 -12.46875 68.039062 -14.625 70.25 -17.375 C 72.457031 -20.125 73.492188 -23.265625 73.359375 -26.796875 Z M 73.359375 -26.796875 "/></g></g></g><g fill="#004aad" fill-opacity="1"><g transform="translate(574.696088, 98.245712)"><g><path d="M 55.53125 -54.609375 C 61.164062 -54.609375 65.867188 -53.570312 69.640625 -51.5 C 73.410156 -49.425781 76.242188 -46.640625 78.140625 -43.140625 C 80.046875 -39.648438 81 -35.800781 81 -31.59375 L 81 0 L 70.515625 0 L 70.515625 -29.859375 C 70.515625 -32.847656 69.734375 -35.460938 68.171875 -37.703125 C 66.609375 -39.941406 64.5 -41.6875 61.84375 -42.9375 C 59.195312 -44.195312 56.273438 -44.828125 53.078125 -44.828125 C 50.160156 -44.828125 47.460938 -44.300781 44.984375 -43.25 C 42.503906 -42.195312 40.363281 -40.835938 38.5625 -39.171875 C 36.757812 -37.515625 35.363281 -35.734375 34.375 -33.828125 C 33.394531 -31.921875 32.90625 -30.085938 32.90625 -28.328125 L 32.90625 0 L 22.421875 0 L 22.421875 -53.5 L 32.90625 -53.5 L 32.90625 -43.609375 C 35.425781 -46.523438 38.585938 -49.085938 42.390625 -51.296875 C 46.191406 -53.503906 50.570312 -54.609375 55.53125 -54.609375 Z M 55.53125 -54.609375 "/></g></g></g></g></g><g transform="matrix(1, 0, 0, 1, 38, 517)"><g clip-path="url(#77996b04f0)"><g fill="#000000" fill-opacity="1"><g transform="translate(1.341226, 385.005828)"><g><path d="M 482.414062 -210.007812 C 482.414062 -255.609375 444.414062 -287.207031 398.8125 -287.207031 L 361.609375 -287.207031 C 314.007812 -287.207031 278.007812 -253.207031 278.007812 -210.007812 L 277.609375 -78.003906 C 277.609375 -60.800781 267.609375 -52.402344 248.007812 -52.402344 C 227.605469 -52.402344 217.207031 -60.800781 217.207031 -78.003906 L 218.007812 -210.007812 C 218.40625 -255.609375 178.804688 -287.207031 134.003906 -287.207031 L 96.402344 -287.207031 C 51.203125 -287.207031 12.800781 -256.007812 12.800781 -210.007812 L 12.800781 -0.398438 L 67.203125 -0.398438 L 67.203125 -210.007812 C 67.203125 -227.207031 76.800781 -236.007812 96.402344 -236.007812 L 134.003906 -236.007812 C 153.605469 -236.007812 163.605469 -227.207031 163.605469 -210.007812 L 163.605469 -78.003906 C 163.605469 -31.199219 201.207031 -0.398438 248.007812 -0.398438 C 293.210938 -0.398438 331.609375 -32.800781 331.609375 -78.003906 L 332.011719 -210.007812 C 332.011719 -227.207031 342.011719 -236.007812 361.609375 -236.007812 L 398.8125 -236.007812 C 418.414062 -236.007812 428.414062 -227.207031 428.414062 -210.007812 L 428.414062 -0.398438 L 482.414062 -0.398438 Z M 482.414062 -210.007812 "/></g></g></g></g></g><g clip-path="url(#38baa44bf1)"><path fill="#004aad" d="M 479.1875 769.628906 C 479.1875 750.730469 463.871094 735.414062 444.972656 735.414062 C 379.433594 735.414062 191.140625 735.414062 125.601562 735.414062 C 106.703125 735.414062 91.386719 750.730469 91.386719 769.628906 L 91.386719 1043.375 C 91.386719 1049.671875 96.496094 1054.78125 102.792969 1054.78125 L 467.78125 1054.78125 C 474.078125 1054.78125 479.1875 1049.671875 479.1875 1043.375 Z M 297.273438 823.054688 L 251.652344 959.929688 C 249.667969 965.894531 252.894531 972.359375 258.871094 974.355469 C 264.835938 976.339844 271.304688 973.113281 273.300781 967.136719 L 318.921875 830.265625 C 320.90625 824.300781 317.679688 817.832031 311.703125 815.835938 C 305.738281 813.851562 299.269531 817.078125 297.273438 823.054688 Z M 226.339844 957.203125 L 184.9375 895.097656 C 184.9375 895.097656 226.339844 832.992188 226.339844 832.992188 C 229.832031 827.746094 228.417969 820.660156 223.179688 817.171875 C 217.933594 813.679688 210.851562 815.09375 207.363281 820.332031 L 161.738281 888.765625 C 159.183594 892.597656 159.183594 897.59375 161.738281 901.425781 L 207.363281 969.863281 C 210.851562 975.097656 217.933594 976.511719 223.179688 973.023438 C 228.417969 969.53125 229.832031 962.449219 226.339844 957.203125 Z M 363.210938 969.863281 L 408.835938 901.425781 C 411.390625 897.59375 411.390625 892.597656 408.835938 888.765625 L 363.210938 820.332031 C 359.722656 815.09375 352.640625 813.679688 347.394531 817.171875 C 342.15625 820.660156 340.742188 827.746094 344.234375 832.992188 L 385.636719 895.097656 C 385.636719 895.097656 344.234375 957.203125 344.234375 957.203125 C 340.742188 962.449219 342.15625 969.53125 347.394531 973.023438 C 352.640625 976.511719 359.722656 975.097656 363.210938 969.863281 Z M 363.210938 969.863281 " fill-opacity="1" fill-rule="evenodd"/></g><g clip-path="url(#94eb660530)"><path fill="#004aad" d="M 444.972656 552.917969 C 444.972656 555.53125 444.90625 558.140625 444.777344 560.753906 C 444.648438 563.363281 444.457031 565.96875 444.203125 568.570312 C 443.945312 571.167969 443.625 573.761719 443.242188 576.347656 C 442.859375 578.933594 442.414062 581.507812 441.902344 584.070312 C 441.394531 586.632812 440.820312 589.183594 440.183594 591.71875 C 439.550781 594.253906 438.851562 596.769531 438.09375 599.269531 C 437.335938 601.773438 436.515625 604.253906 435.636719 606.714844 C 434.757812 609.171875 433.816406 611.609375 432.816406 614.027344 C 431.816406 616.441406 430.757812 618.828125 429.640625 621.191406 C 428.523438 623.554688 427.347656 625.886719 426.117188 628.191406 C 424.882812 630.496094 423.597656 632.769531 422.253906 635.011719 C 420.910156 637.253906 419.511719 639.460938 418.058594 641.632812 C 416.605469 643.804688 415.101562 645.941406 413.546875 648.039062 C 411.988281 650.140625 410.382812 652.199219 408.722656 654.21875 C 407.066406 656.238281 405.359375 658.21875 403.605469 660.152344 C 401.851562 662.089844 400.046875 663.984375 398.199219 665.832031 C 396.351562 667.679688 394.460938 669.480469 392.523438 671.234375 C 390.585938 672.988281 388.609375 674.695312 386.589844 676.355469 C 384.570312 678.011719 382.507812 679.621094 380.410156 681.175781 C 378.3125 682.734375 376.175781 684.238281 374.003906 685.6875 C 371.828125 687.140625 369.621094 688.539062 367.382812 689.882812 C 365.140625 691.226562 362.867188 692.515625 360.5625 693.746094 C 358.257812 694.976562 355.921875 696.152344 353.5625 697.269531 C 351.199219 698.386719 348.808594 699.445312 346.394531 700.445312 C 343.980469 701.445312 341.542969 702.386719 339.082031 703.265625 C 336.621094 704.148438 334.140625 704.964844 331.640625 705.726562 C 329.140625 706.484375 326.621094 707.179688 324.085938 707.816406 C 321.550781 708.449219 319.003906 709.023438 316.441406 709.53125 C 313.875 710.042969 311.300781 710.488281 308.71875 710.871094 C 306.132812 711.257812 303.539062 711.574219 300.9375 711.832031 C 298.339844 712.089844 295.734375 712.28125 293.121094 712.410156 C 290.511719 712.535156 287.902344 712.601562 285.289062 712.601562 C 282.671875 712.601562 280.0625 712.535156 277.453125 712.410156 C 274.839844 712.28125 272.234375 712.089844 269.636719 711.832031 C 267.035156 711.574219 264.441406 711.257812 261.855469 710.871094 C 259.273438 710.488281 256.699219 710.042969 254.132812 709.53125 C 251.570312 709.023438 249.023438 708.449219 246.488281 707.816406 C 243.953125 707.179688 241.433594 706.484375 238.933594 705.726562 C 236.433594 704.964844 233.953125 704.148438 231.492188 703.265625 C 229.03125 702.386719 226.59375 701.445312 224.179688 700.445312 C 221.765625 699.445312 219.375 698.386719 217.011719 697.269531 C 214.652344 696.152344 212.316406 694.976562 210.011719 693.746094 C 207.707031 692.515625 205.433594 691.226562 203.191406 689.882812 C 200.953125 688.539062 198.746094 687.140625 196.570312 685.6875 C 194.398438 684.238281 192.261719 682.734375 190.164062 681.175781 C 188.066406 679.621094 186.003906 678.011719 183.984375 676.355469 C 181.964844 674.695312 179.988281 672.988281 178.050781 671.234375 C 176.113281 669.480469 174.222656 667.679688 172.375 665.832031 C 170.527344 663.984375 168.722656 662.089844 166.96875 660.152344 C 165.214844 658.21875 163.507812 656.238281 161.851562 654.21875 C 160.191406 652.199219 158.585938 650.140625 157.027344 648.039062 C 155.472656 645.941406 153.96875 643.804688 152.515625 641.632812 C 151.0625 639.460938 149.664062 637.253906 148.320312 635.011719 C 146.976562 632.769531 145.691406 630.496094 144.457031 628.191406 C 143.226562 625.886719 142.050781 623.554688 140.933594 621.191406 C 139.816406 618.828125 138.757812 616.441406 137.757812 614.027344 C 136.757812 611.609375 135.816406 609.171875 134.9375 606.714844 C 134.058594 604.253906 133.238281 601.773438 132.480469 599.269531 C 131.722656 596.769531 131.023438 594.253906 130.390625 591.71875 C 129.753906 589.183594 129.179688 586.632812 128.671875 584.070312 C 128.160156 581.507812 127.714844 578.933594 127.332031 576.347656 C 126.949219 573.761719 126.628906 571.167969 126.371094 568.570312 C 126.117188 565.96875 125.925781 563.363281 125.796875 560.753906 C 125.667969 558.140625 125.601562 555.53125 125.601562 552.917969 C 125.601562 550.304688 125.667969 547.691406 125.796875 545.082031 C 125.925781 542.472656 126.117188 539.867188 126.371094 537.265625 C 126.628906 534.664062 126.949219 532.070312 127.332031 529.488281 C 127.714844 526.902344 128.160156 524.328125 128.671875 521.765625 C 129.179688 519.203125 129.753906 516.652344 130.390625 514.117188 C 131.023438 511.582031 131.722656 509.0625 132.480469 506.5625 C 133.238281 504.0625 134.058594 501.582031 134.9375 499.121094 C 135.816406 496.660156 136.757812 494.222656 137.757812 491.808594 C 138.757812 489.394531 139.816406 487.007812 140.933594 484.644531 C 142.050781 482.28125 143.226562 479.949219 144.457031 477.644531 C 145.691406 475.339844 146.976562 473.066406 148.320312 470.824219 C 149.664062 468.582031 151.0625 466.375 152.515625 464.203125 C 153.96875 462.027344 155.472656 459.894531 157.027344 457.792969 C 158.585938 455.695312 160.191406 453.636719 161.851562 451.613281 C 163.507812 449.59375 165.214844 447.617188 166.96875 445.679688 C 168.722656 443.742188 170.527344 441.851562 172.375 440.003906 C 174.222656 438.15625 176.113281 436.355469 178.050781 434.597656 C 179.988281 432.84375 181.964844 431.136719 183.984375 429.480469 C 186.003906 427.820312 188.066406 426.214844 190.164062 424.65625 C 192.261719 423.101562 194.398438 421.597656 196.570312 420.144531 C 198.746094 418.691406 200.953125 417.296875 203.191406 415.953125 C 205.433594 414.609375 207.707031 413.320312 210.011719 412.089844 C 212.316406 410.855469 214.652344 409.683594 217.011719 408.566406 C 219.375 407.449219 221.765625 406.390625 224.179688 405.390625 C 226.59375 404.386719 229.03125 403.449219 231.492188 402.566406 C 233.953125 401.6875 236.433594 400.867188 238.933594 400.109375 C 241.433594 399.351562 243.953125 398.652344 246.488281 398.019531 C 249.023438 397.382812 251.570312 396.8125 254.132812 396.300781 C 256.699219 395.792969 259.273438 395.34375 261.855469 394.960938 C 264.441406 394.578125 267.035156 394.257812 269.636719 394.003906 C 272.234375 393.746094 274.839844 393.554688 277.453125 393.425781 C 280.0625 393.296875 282.671875 393.234375 285.289062 393.234375 C 287.902344 393.234375 290.511719 393.296875 293.121094 393.425781 C 295.734375 393.554688 298.339844 393.746094 300.9375 394.003906 C 303.539062 394.257812 306.132812 394.578125 308.71875 394.960938 C 311.300781 395.34375 313.875 395.792969 316.441406 396.300781 C 319.003906 396.8125 321.550781 397.382812 324.085938 398.019531 C 326.621094 398.652344 329.140625 399.351562 331.640625 400.109375 C 334.140625 400.867188 336.621094 401.6875 339.082031 402.566406 C 341.542969 403.449219 343.980469 404.386719 346.394531 405.390625 C 348.808594 406.390625 351.199219 407.449219 353.5625 408.566406 C 355.921875 409.683594 358.257812 410.855469 360.5625 412.089844 C 362.867188 413.320312 365.140625 414.609375 367.382812 415.953125 C 369.621094 417.296875 371.828125 418.691406 374.003906 420.144531 C 376.175781 421.597656 378.3125 423.101562 380.410156 424.65625 C 382.507812 426.214844 384.570312 427.820312 386.589844 429.480469 C 388.609375 431.136719 390.585938 432.84375 392.523438 434.597656 C 394.460938 436.355469 396.351562 438.15625 398.199219 440.003906 C 400.046875 441.851562 401.851562 443.742188 403.605469 445.679688 C 405.359375 447.617188 407.066406 449.59375 408.722656 451.613281 C 410.382812 453.636719 411.988281 455.695312 413.546875 457.792969 C 415.101562 459.894531 416.605469 462.027344 418.058594 464.203125 C 419.511719 466.375 420.910156 468.582031 422.253906 470.824219 C 423.597656 473.066406 424.882812 475.339844 426.117188 477.644531 C 427.347656 479.949219 428.523438 482.28125 429.640625 484.644531 C 430.757812 487.007812 431.816406 489.394531 432.816406 491.808594 C 433.816406 494.222656 434.757812 496.660156 435.636719 499.121094 C 436.515625 501.582031 437.335938 504.0625 438.09375 506.5625 C 438.851562 509.0625 439.550781 511.582031 440.183594 514.117188 C 440.820312 516.652344 441.394531 519.203125 441.902344 521.765625 C 442.414062 524.328125 442.859375 526.902344 443.242188 529.488281 C 443.625 532.070312 443.945312 534.664062 444.203125 537.265625 C 444.457031 539.867188 444.648438 542.472656 444.777344 545.082031 C 444.90625 547.691406 444.972656 550.304688 444.972656 552.917969 Z M 444.972656 552.917969 " fill-opacity="1" fill-rule="nonzero"/></g><g clip-path="url(#a870bc4459)"><path fill="#004aad" d="M 68.574219 843.289062 C 25.949219 897.09375 0.136719 966.988281 0.136719 1043.375 C 0.136719 1049.671875 5.246094 1054.78125 11.542969 1054.78125 L 70.523438 1054.78125 C 69.257812 1051.210938 68.574219 1047.378906 68.574219 1043.375 Z M 68.574219 843.289062 " fill-opacity="1" fill-rule="evenodd"/></g><g clip-path="url(#f7f8ade583)"><path fill="#004aad" d="M 502 843.289062 L 502 1043.375 C 502 1047.378906 501.316406 1051.210938 500.050781 1054.78125 L 559.03125 1054.78125 C 565.328125 1054.78125 570.4375 1049.671875 570.4375 1043.375 C 570.4375 966.988281 544.625 897.09375 502 843.289062 Z M 502 843.289062 " fill-opacity="1" fill-rule="evenodd"/></g><g transform="matrix(1, 0, 0, 1, 176, 416)"><g clip-path="url(#0aa553e310)"><g fill="#ffffff" fill-opacity="1"><g transform="translate(1.208023, 216.660549)"><g><path d="M 200.195312 -29.464844 L 58.257812 -29.464844 C 47.238281 -29.464844 41.613281 -34.191406 41.613281 -43.863281 L 41.613281 -118.09375 C 41.613281 -125.964844 50.160156 -132.710938 58.257812 -132.710938 L 200.195312 -132.710938 L 200.195312 -161.503906 L 58.257812 -161.503906 C 34.414062 -161.503906 11.023438 -141.484375 11.023438 -118.09375 L 11.023438 -43.863281 C 11.023438 -18.21875 32.617188 -0.226562 58.257812 -0.226562 L 200.195312 -0.226562 Z M 200.195312 -29.464844 "/></g></g></g></g></g><g transform="matrix(1, 0, 0, 1, 109, 965)"><g clip-path="url(#6bf2fe3d01)"><g fill="#ffffff" fill-opacity="1"><g transform="translate(0.91352, 51.099511)"><g><path d="M 10.34375 -11.40625 C 12.414062 -9.257812 14.625 -7.585938 16.96875 -6.390625 C 19.3125 -5.191406 22.082031 -4.59375 25.28125 -4.59375 C 27.113281 -4.59375 28.875 -4.8125 30.5625 -5.25 C 32.25 -5.6875 33.632812 -6.351562 34.71875 -7.25 C 35.8125 -8.15625 36.359375 -9.289062 36.359375 -10.65625 C 36.359375 -11.851562 35.875 -12.757812 34.90625 -13.375 C 33.945312 -13.988281 32.5625 -14.460938 30.75 -14.796875 C 28.9375 -15.140625 26.726562 -15.46875 24.125 -15.78125 C 20.957031 -16.207031 18.210938 -16.84375 15.890625 -17.6875 C 13.566406 -18.53125 11.769531 -19.671875 10.5 -21.109375 C 9.238281 -22.554688 8.609375 -24.367188 8.609375 -26.546875 C 8.609375 -28.867188 9.335938 -30.835938 10.796875 -32.453125 C 12.253906 -34.078125 14.222656 -35.316406 16.703125 -36.171875 C 19.179688 -37.035156 21.953125 -37.46875 25.015625 -37.46875 C 28.785156 -37.46875 32.03125 -36.90625 34.75 -35.78125 C 37.476562 -34.65625 39.632812 -33.054688 41.21875 -30.984375 L 37.421875 -26.8125 C 36.046875 -28.46875 34.3125 -29.804688 32.21875 -30.828125 C 30.125 -31.847656 27.671875 -32.359375 24.859375 -32.359375 C 22.960938 -32.359375 21.253906 -32.15625 19.734375 -31.75 C 18.222656 -31.34375 17.023438 -30.75 16.140625 -29.96875 C 15.265625 -29.195312 14.828125 -28.269531 14.828125 -27.1875 C 14.828125 -25.882812 15.289062 -24.851562 16.21875 -24.09375 C 17.15625 -23.332031 18.476562 -22.738281 20.1875 -22.3125 C 21.894531 -21.894531 23.875 -21.546875 26.125 -21.265625 C 28.238281 -21.023438 30.28125 -20.71875 32.25 -20.34375 C 34.21875 -19.976562 35.984375 -19.453125 37.546875 -18.765625 C 39.117188 -18.078125 40.351562 -17.144531 41.25 -15.96875 C 42.144531 -14.789062 42.59375 -13.269531 42.59375 -11.40625 C 42.59375 -9.007812 41.878906 -6.910156 40.453125 -5.109375 C 39.023438 -3.316406 37.007812 -1.925781 34.40625 -0.9375 C 31.800781 0.0390625 28.742188 0.53125 25.234375 0.53125 C 21.390625 0.53125 17.9375 -0.03125 14.875 -1.15625 C 11.820312 -2.28125 9.113281 -4.113281 6.75 -6.65625 Z M 10.34375 -11.40625 "/></g></g></g><g fill="#ffffff" fill-opacity="1"><g transform="translate(50.255055, 51.099511)"><g><path d="M 43.546875 -13.875 C 43.546875 -11.0625 42.769531 -8.570312 41.21875 -6.40625 C 39.675781 -4.25 37.53125 -2.550781 34.78125 -1.3125 C 32.039062 -0.0820312 28.859375 0.53125 25.234375 0.53125 C 21.609375 0.53125 18.410156 -0.0820312 15.640625 -1.3125 C 12.878906 -2.550781 10.722656 -4.25 9.171875 -6.40625 C 7.628906 -8.570312 6.859375 -11.0625 6.859375 -13.875 C 6.859375 -16.695312 7.628906 -19.1875 9.171875 -21.34375 C 10.722656 -23.507812 12.878906 -25.207031 15.640625 -26.4375 C 18.410156 -27.675781 21.609375 -28.296875 25.234375 -28.296875 C 28.859375 -28.296875 32.039062 -27.675781 34.78125 -26.4375 C 37.53125 -25.207031 39.675781 -23.507812 41.21875 -21.34375 C 42.769531 -19.1875 43.546875 -16.695312 43.546875 -13.875 Z M 38 -13.875 C 38.070312 -15.738281 37.535156 -17.382812 36.390625 -18.8125 C 35.242188 -20.238281 33.703125 -21.347656 31.765625 -22.140625 C 29.835938 -22.929688 27.660156 -23.328125 25.234375 -23.328125 C 22.835938 -23.328125 20.65625 -22.929688 18.6875 -22.140625 C 16.71875 -21.347656 15.164062 -20.238281 14.03125 -18.8125 C 12.90625 -17.382812 12.363281 -15.738281 12.40625 -13.875 C 12.363281 -12.050781 12.90625 -10.425781 14.03125 -9 C 15.164062 -7.570312 16.71875 -6.453125 18.6875 -5.640625 C 20.65625 -4.835938 22.835938 -4.4375 25.234375 -4.4375 C 27.660156 -4.4375 29.835938 -4.835938 31.765625 -5.640625 C 33.703125 -6.453125 35.242188 -7.570312 36.390625 -9 C 37.535156 -10.425781 38.070312 -12.050781 38 -13.875 Z M 38 -13.875 "/></g></g></g><g fill="#ffffff" fill-opacity="1"><g transform="translate(100.652028, 51.099511)"><g><path d="M 11.078125 0 L 11.078125 -39.0625 L 16.515625 -39.0625 L 16.515625 0 Z M 11.078125 0 "/></g></g></g><g fill="#ffffff" fill-opacity="1"><g transform="translate(127.98777, 51.099511)"><g><path d="M 35.78125 -14.71875 L 35.78125 -27.703125 L 41.21875 -27.703125 L 41.21875 0 L 35.78125 0 L 35.78125 -4.859375 C 34.726562 -3.484375 33.101562 -2.238281 30.90625 -1.125 C 28.707031 -0.0195312 26.039062 0.53125 22.90625 0.53125 C 20.445312 0.53125 18.289062 -0.0390625 16.4375 -1.1875 C 14.59375 -2.332031 13.148438 -3.96875 12.109375 -6.09375 C 11.078125 -8.226562 10.5625 -10.789062 10.5625 -13.78125 L 10.5625 -27.703125 L 16 -27.703125 L 16 -15.78125 C 16 -12.15625 16.71875 -9.4375 18.15625 -7.625 C 19.601562 -5.8125 21.925781 -4.90625 25.125 -4.90625 C 27.0625 -4.90625 28.835938 -5.300781 30.453125 -6.09375 C 32.066406 -6.882812 33.359375 -8.007812 34.328125 -9.46875 C 35.296875 -10.9375 35.78125 -12.6875 35.78125 -14.71875 Z M 35.78125 -14.71875 "/></g></g></g><g fill="#ffffff" fill-opacity="1"><g transform="translate(179.756808, 51.099511)"><g><path d="M 20.953125 0 L 15.515625 0 L 15.515625 -22.4375 L 6.59375 -22.4375 L 6.59375 -27.703125 L 15.515625 -27.703125 L 15.515625 -36.359375 L 20.953125 -36.359375 L 20.953125 -27.703125 L 31.609375 -27.703125 L 31.609375 -22.4375 L 20.953125 -22.4375 Z M 20.953125 0 "/></g></g></g><g fill="#ffffff" fill-opacity="1"><g transform="translate(219.282805, 51.099511)"><g><path d="M 14.203125 -33.71875 C 12.972656 -33.71875 12.054688 -34.035156 11.453125 -34.671875 C 10.859375 -35.304688 10.5625 -36.132812 10.5625 -37.15625 C 10.5625 -38.03125 10.859375 -38.816406 11.453125 -39.515625 C 12.054688 -40.222656 12.972656 -40.578125 14.203125 -40.578125 C 15.429688 -40.578125 16.34375 -40.257812 16.9375 -39.625 C 17.539062 -39 17.84375 -38.175781 17.84375 -37.15625 C 17.84375 -36.269531 17.539062 -35.472656 16.9375 -34.765625 C 16.34375 -34.066406 15.429688 -33.71875 14.203125 -33.71875 Z M 16.890625 0 L 11.453125 0 L 11.453125 -27.703125 L 16.890625 -27.703125 Z M 16.890625 0 "/></g></g></g><g fill="#ffffff" fill-opacity="1"><g transform="translate(247.673985, 51.099511)"><g><path d="M 43.546875 -13.875 C 43.546875 -11.0625 42.769531 -8.570312 41.21875 -6.40625 C 39.675781 -4.25 37.53125 -2.550781 34.78125 -1.3125 C 32.039062 -0.0820312 28.859375 0.53125 25.234375 0.53125 C 21.609375 0.53125 18.410156 -0.0820312 15.640625 -1.3125 C 12.878906 -2.550781 10.722656 -4.25 9.171875 -6.40625 C 7.628906 -8.570312 6.859375 -11.0625 6.859375 -13.875 C 6.859375 -16.695312 7.628906 -19.1875 9.171875 -21.34375 C 10.722656 -23.507812 12.878906 -25.207031 15.640625 -26.4375 C 18.410156 -27.675781 21.609375 -28.296875 25.234375 -28.296875 C 28.859375 -28.296875 32.039062 -27.675781 34.78125 -26.4375 C 37.53125 -25.207031 39.675781 -23.507812 41.21875 -21.34375 C 42.769531 -19.1875 43.546875 -16.695312 43.546875 -13.875 Z M 38 -13.875 C 38.070312 -15.738281 37.535156 -17.382812 36.390625 -18.8125 C 35.242188 -20.238281 33.703125 -21.347656 31.765625 -22.140625 C 29.835938 -22.929688 27.660156 -23.328125 25.234375 -23.328125 C 22.835938 -23.328125 20.65625 -22.929688 18.6875 -22.140625 C 16.71875 -21.347656 15.164062 -20.238281 14.03125 -18.8125 C 12.90625 -17.382812 12.363281 -15.738281 12.40625 -13.875 C 12.363281 -12.050781 12.90625 -10.425781 14.03125 -9 C 15.164062 -7.570312 16.71875 -6.453125 18.6875 -5.640625 C 20.65625 -4.835938 22.835938 -4.4375 25.234375 -4.4375 C 27.660156 -4.4375 29.835938 -4.835938 31.765625 -5.640625 C 33.703125 -6.453125 35.242188 -7.570312 36.390625 -9 C 37.535156 -10.425781 38.070312 -12.050781 38 -13.875 Z M 38 -13.875 "/></g></g></g><g fill="#ffffff" fill-opacity="1"><g transform="translate(298.070957, 51.099511)"><g><path d="M 28.765625 -28.296875 C 31.679688 -28.296875 34.113281 -27.757812 36.0625 -26.6875 C 38.019531 -25.613281 39.492188 -24.171875 40.484375 -22.359375 C 41.472656 -20.546875 41.96875 -18.546875 41.96875 -16.359375 L 41.96875 0 L 36.53125 0 L 36.53125 -15.46875 C 36.53125 -17.007812 36.125 -18.359375 35.3125 -19.515625 C 34.5 -20.679688 33.40625 -21.585938 32.03125 -22.234375 C 30.664062 -22.890625 29.15625 -23.21875 27.5 -23.21875 C 25.988281 -23.21875 24.585938 -22.945312 23.296875 -22.40625 C 22.015625 -21.863281 20.90625 -21.160156 19.96875 -20.296875 C 19.039062 -19.429688 18.320312 -18.503906 17.8125 -17.515625 C 17.300781 -16.535156 17.046875 -15.585938 17.046875 -14.671875 L 17.046875 0 L 11.609375 0 L 11.609375 -27.703125 L 17.046875 -27.703125 L 17.046875 -22.59375 C 18.347656 -24.101562 19.984375 -25.429688 21.953125 -26.578125 C 23.921875 -27.722656 26.191406 -28.296875 28.765625 -28.296875 Z M 28.765625 -28.296875 "/></g></g></g></g></g></svg>